<?xml version="1.0" encoding="UTF-8"?>
<svg id="Layer_1" data-name="Layer 1" xmlns="http://www.w3.org/2000/svg" viewBox="0 0 800 800">
  <defs>
    <style>
      .cls-1 {
        fill: #003660;
      }
    </style>
  </defs>
  <g id="Share">
    <path class="cls-1" d="m724.72,712.16c16.82-29.08,21.28-62.94,12.59-95.36-8.7-32.4-29.5-59.46-58.58-76.18-19.15-11.09-40.85-16.94-62.79-16.94-29.7,0-58.5,10.53-81.1,29.65l-4.57,3.86-223.69-129.1,1.15-5.95c1.3-6.75,1.96-14.2,1.96-22.12s-.64-15.19-1.97-22.13l-1.13-5.94,223.67-129.13,4.57,3.85c22.7,19.11,51.56,29.64,81.28,29.64,21.88,0,43.54-5.81,62.62-16.82,29.09-16.82,49.9-43.94,58.59-76.36,8.69-32.41,4.22-66.26-12.58-95.31-22.35-38.74-64.07-62.81-108.88-62.81-21.95,0-43.69,5.84-62.85,16.89-45.68,26.38-70.08,79.02-60.71,130.97l1.06,5.89-223.7,129.05-4.57-3.83c-22.72-19.1-51.5-29.61-81.06-29.61-69.3,0-125.68,56.37-125.68,125.67s56.38,125.63,125.68,125.63c29.85,0,58.62-10.52,81.02-29.62l4.57-3.9,223.74,129.07-1.06,5.89c-9.37,51.91,15.04,104.6,60.73,131.12,19.13,10.98,40.84,16.78,62.77,16.78,44.86,0,86.6-24.08,108.93-62.84Z"/>
  </g>
</svg>