<?xml version="1.0" encoding="UTF-8"?>
<svg id="Icons" xmlns="http://www.w3.org/2000/svg" viewBox="0 0 100 100">
  <defs>
    <style>
      .cls-1 {
        fill: #15375f;
      }
    </style>
  </defs>
  <g id="Question_Mark" data-name="Question Mark">
    <path class="cls-1" d="m40.94,57.94v-3.9c0-7.81,12.85-11.25,12.85-17.19,0-2.88-2.98-5.48-6.98-5.48-6.52,0-8.29,5.86-10.62,3.81l-5.68-5.58c-.75-.65-.65-1.77,0-2.42,0,0,6.89-8.18,18.91-8.18,9.87,0,19,6.88,19,16.27,0,12.27-13.97,12.64-13.97,22.68,0,1.02-.84,1.77-1.77,1.77h-9.97c-.93,0-1.77-.74-1.77-1.77Zm6.72,9.49c4.23,0,7.81,3.57,7.81,7.79s-3.58,7.63-7.81,7.63-7.65-3.49-7.65-7.63,3.5-7.79,7.65-7.79Z"/>
  </g>
</svg>